<svg width="100" height="100" viewBox="0 0 100 100" fill="none" xmlns="http://www.w3.org/2000/svg">
<g clip-path="url(#clip0_14_32)">
<rect width="100" height="100" fill="white"/>
<path d="M77.9906 81.2053L85.4409 71.9986L91.3864 77.1501L83.5297 86.0341L94.3683 90.7017L91.2862 97.9438L80.2063 92.8581L79.4008 104.806L71.5055 103.902L72.8824 92.1813L61.4254 94.4481L59.9369 86.7234L71.3876 85.0175L65.3534 74.566L71.9564 70.7538L77.9906 81.2053Z" fill="#EC4899"/>
<path d="M93.9296 -9.40393H114.028V-0.877439H104.74V51.4996H114.028V60.0261H93.9296V-9.40393Z" fill="#047302"/>
<path d="M56.5658 16.9035H60.6768C61.5903 16.9035 62.3009 16.7259 62.8084 16.3706C63.3667 16.0154 63.7981 15.5586 64.1026 15.0003C64.4071 14.4928 64.5848 13.9091 64.6355 13.2493C64.737 12.5895 64.7878 11.9805 64.7878 11.4222V-0.758494C64.7878 -2.38259 65.0669 -3.70216 65.6252 -4.71722C66.2342 -5.78303 66.9194 -6.62046 67.6807 -7.22949C68.4927 -7.88928 69.3302 -8.34606 70.193 -8.59982C71.0558 -8.90434 71.7663 -9.08198 72.3246 -9.13273V-9.36112C71.7663 -9.41187 71.0558 -9.56413 70.193 -9.81789C69.3302 -10.0717 68.4927 -10.5031 67.6807 -11.1121C66.9194 -11.7719 66.2342 -12.6601 65.6252 -13.7766C65.0669 -14.9439 64.7878 -16.4665 64.7878 -18.3444V-29.9161C64.7878 -30.5251 64.737 -31.1595 64.6355 -31.8193C64.5848 -32.4791 64.4071 -33.0627 64.1026 -33.5703C63.7981 -34.1286 63.3667 -34.5853 62.8084 -34.9406C62.3009 -35.2959 61.5903 -35.4735 60.6768 -35.4735H56.5658V-44H66.2342C67.097 -44 68.0613 -43.7716 69.1271 -43.3148C70.2437 -42.9088 71.2588 -42.2744 72.1723 -41.4116C73.1366 -40.5996 73.9487 -39.5337 74.6085 -38.2142C75.2683 -36.9453 75.5981 -35.4481 75.5981 -33.7225V-19.4102C75.5981 -18.1414 75.8519 -17.0502 76.3594 -16.1366C76.867 -15.2738 77.476 -14.5633 78.1866 -14.005C78.8971 -13.4975 79.6584 -13.1168 80.4704 -12.8631C81.2825 -12.6601 81.993 -12.5586 82.6021 -12.5586V-5.93529C81.993 -5.93529 81.2825 -5.80841 80.4704 -5.55464C79.6584 -5.35163 78.8971 -4.99637 78.1866 -4.48884C77.476 -4.03206 76.867 -3.39765 76.3594 -2.5856C75.8519 -1.77355 75.5981 -0.783869 75.5981 0.383449V15.1526C75.5981 16.8782 75.2683 18.3754 74.6085 19.6442C73.9487 20.9638 73.1366 22.0296 72.1723 22.8416C71.2588 23.7044 70.2437 24.3388 69.1271 24.7449C68.0613 25.2016 67.097 25.43 66.2342 25.43H56.5658V16.9035Z" fill="#F5F5F5"/>
<path d="M46.8789 61.7121L74.8184 50.5972L46.8789 39.4823V30.7274L85.5527 46.1056V55.0888L46.8789 70.3908V61.7121Z" fill="#FE3D13"/>
<path d="M15.0507 4.43433H25.861V16.0821C25.9118 17.757 25.658 19.3303 25.0997 20.8022C24.5922 22.274 23.8563 23.5682 22.892 24.6847C21.9277 25.8013 20.7604 26.7402 19.39 27.5015C18.0705 28.2121 16.624 28.6689 15.0507 28.8719V23.8473C16.9793 23.1875 18.2988 22.2232 19.0094 20.9544C19.7199 19.6348 20.0752 18.0361 20.0752 16.1583H15.0507V4.43433ZM31.2662 4.43433H42.0766V16.0821C42.1274 17.757 41.8736 19.3303 41.3153 20.8022C40.8078 22.274 40.0719 23.5682 39.1076 24.6847C38.1432 25.8013 36.9759 26.7402 35.6056 27.5015C34.286 28.2121 32.8396 28.6689 31.2662 28.8719V23.8473C33.1948 23.1875 34.5144 22.2232 35.225 20.9544C35.9355 19.6348 36.2908 18.0361 36.2908 16.1583H31.2662V4.43433Z" fill="#5B39A2"/>
<path d="M15.9323 49.3704H3.97998V37.6465H15.9323V49.3704ZM3.97998 64.5963H15.9323V76.3202C15.9323 78.0458 15.6024 79.6192 14.9426 81.0403C14.3336 82.5121 13.4962 83.7809 12.4303 84.8467C11.3645 85.9125 10.0957 86.7753 8.62387 87.4351C7.20279 88.1457 5.6802 88.6278 4.05611 88.8816V83.4003C4.8174 83.248 5.52795 82.9435 6.18773 82.4867C6.89827 82.0299 7.50731 81.4717 8.01484 80.8119C8.52237 80.2028 8.90302 79.4923 9.15678 78.6802C9.41054 77.9189 9.51205 77.1323 9.4613 76.3202H3.97998V64.5963Z" fill="#FEAE13"/>
<path d="M27.5052 84.5398H37.5483V94.391H27.5052V84.5398ZM37.2285 60.9993L34.7337 80.7017H30.1919L27.7611 60.9993V48.7173H37.2285V60.9993Z" fill="#056CF2"/>
</g>
<defs>
<clipPath id="clip0_14_32">
<rect width="100" height="100" fill="white"/>
</clipPath>
</defs>
</svg>
