<svg width="40" height="32" viewBox="0 0 40 32" fill="none" xmlns="http://www.w3.org/2000/svg">
<path d="M3 32C2.2 32 1.5 31.7 0.9 31.1C0.3 30.5 0 29.8 0 29V3C0 2.2 0.3 1.5 0.9 0.9C1.5 0.3 2.2 0 3 0H37C37.8 0 38.5 0.3 39.1 0.9C39.7 1.5 40 2.2 40 3V29C40 29.8 39.7 30.5 39.1 31.1C38.5 31.7 37.8 32 37 32H3ZM3 29H18.5V3H3V29ZM21.5 29H37V3H21.5V29ZM5.5 24.15H16V21.15H5.5V24.15ZM5.5 17.7H16V14.7H5.5V17.7ZM5.5 11.25H16V8.25H5.5V11.25ZM24 24.15H34.5V21.15H24V24.15ZM24 17.7H34.5V14.7H24V17.7ZM24 11.25H34.5V8.25H24V11.25Z" fill="white"/>
</svg>
