<svg width="98" height="96" viewBox="0 0 98 96" fill="none" xmlns="http://www.w3.org/2000/svg">
<path d="M97.2924 70.9387C97.1193 72.3232 96.7154 73.5139 96.0807 74.5108C95.5038 75.4523 95.1576 76.5599 95.0422 77.8337C94.2921 77.8891 93.8882 78.166 93.8306 78.6644C93.7729 79.1628 93.4267 79.6059 92.792 79.9935C92.9074 79.9935 93.0516 79.9935 93.2247 79.9935C93.4555 79.9935 93.6575 80.0212 93.8306 80.0766C94.0036 80.0766 94.0325 80.2428 93.9171 80.5751C93.3401 80.4089 92.9074 80.3812 92.6189 80.492C92.3881 80.6028 92.1862 80.7412 92.0131 80.9073C91.8977 81.0735 91.7535 81.2119 91.5804 81.3227C91.4073 81.3781 91.1765 81.3781 90.888 81.3227C90.8303 81.5996 90.9457 81.7935 91.2342 81.9042C91.3496 81.9596 91.4361 82.0427 91.4938 82.1534C91.5515 82.2088 91.5227 82.375 91.4073 82.6519C90.4264 82.9842 89.7341 83.3441 89.3302 83.7318C88.9263 84.0641 88.2339 84.341 87.2531 84.5625C87.2531 84.7841 87.3973 84.8948 87.6858 84.8948C88.032 84.8394 88.2339 84.8948 88.2916 85.061C85.8684 87.1655 82.9835 88.6054 79.6371 89.3807C76.2907 90.1007 72.9442 90.4607 69.5978 90.4607C68.8478 90.4607 67.8669 90.2115 66.6553 89.713C65.5013 89.27 64.6359 88.7992 64.0589 88.3008C64.0012 88.2454 64.0012 88.107 64.0589 87.8854C64.1166 87.6639 64.1166 87.5531 64.0589 87.5531C63.8858 87.4424 63.7127 87.3316 63.5396 87.2209C63.4242 87.1101 63.28 86.9993 63.1069 86.8886C62.5299 86.5563 62.0395 86.1686 61.6356 85.7255C61.2895 85.2271 61.1741 84.3964 61.2895 83.2334C61.9818 81.9596 63.1069 80.9073 64.6647 80.0766C66.2225 79.1905 67.9535 78.609 69.8575 78.3321C71.8191 77.9998 73.6943 78.0275 75.4829 78.4152C77.2715 78.8028 78.7716 79.6059 79.9833 80.8243V82.1534C81.6565 81.2673 83.3586 80.0212 85.0895 78.4152C86.8781 76.8091 88.3493 74.9815 89.5033 72.9324C90.7149 70.8833 91.263 68.7788 91.1476 66.6189C91.0323 64.7913 90.2822 63.4621 88.8975 62.6314C87.5704 61.8007 85.9261 61.3576 83.9644 61.3023C82.0027 61.1915 80.041 61.3299 78.0793 61.7176C76.1753 62.0499 74.5598 62.4376 73.2327 62.8806C72.1942 64.2098 71.0402 64.7913 69.7709 64.6252C68.5016 64.4036 67.463 63.7391 66.6553 62.6314C65.8475 61.4684 65.5302 60.1946 65.7033 58.8101C68.2996 56.9825 70.7806 55.0718 73.1462 53.0781C75.5118 51.0844 77.6177 48.8137 79.464 46.2662C81.3103 43.7186 82.695 40.7557 83.6182 37.3774C81.6565 36.4359 79.4352 36.1036 76.9542 36.3805C74.5309 36.6574 72.2807 37.1005 70.2036 37.7097C68.3573 38.2635 66.2514 38.9835 63.8858 39.8696C61.5779 40.7003 59.6739 41.4756 58.1738 42.1956C57.943 42.3064 57.6834 42.4448 57.3949 42.611C57.1064 42.7771 56.8179 42.9709 56.5295 43.1925C55.8948 43.5248 55.289 43.8571 54.712 44.1893C54.135 44.4663 53.6158 44.6047 53.1542 44.6047C52.4041 44.5493 51.6541 44.0232 50.904 43.0263C50.1539 42.0295 49.6058 40.9218 49.2596 39.7034C48.9135 38.485 48.9135 37.5436 49.2596 36.879C49.7212 36.1036 50.4136 35.5498 51.3367 35.2175C52.2599 34.8852 53.0388 34.5529 53.6735 34.2207C53.5581 33.8884 53.6735 33.5838 54.0196 33.3069C54.4235 32.9746 54.8562 32.6977 55.3178 32.4761C55.4909 32.3654 55.664 32.2546 55.8371 32.1438C56.0102 32.0331 56.1544 31.9223 56.2698 31.8116C56.7314 32.0885 56.9622 32.5592 56.9622 33.2238C57.0199 33.833 57.1353 34.4145 57.3084 34.9683C59.4432 34.3037 61.8664 33.6392 64.5782 32.9746C67.3476 32.2546 70.1748 31.7008 73.0596 31.3131C76.0022 30.9255 78.7716 30.8978 81.368 31.23C83.9644 31.507 86.1857 32.31 88.032 33.6391C89.359 34.5806 90.0803 35.7713 90.1956 37.2113C90.311 38.5958 90.0802 40.0634 89.5033 41.6141C88.9263 43.1648 88.1762 44.6601 87.2531 46.1C86.3876 47.5399 85.5799 48.8137 84.8298 49.9213C84.6567 50.1982 84.4836 50.4475 84.3106 50.669C84.1375 50.8905 83.9932 51.112 83.8778 51.3336C83.3009 51.832 82.5796 52.4135 81.7142 53.0781C80.9064 53.7427 80.416 54.3242 80.2429 54.8226C80.1852 55.0441 80.0121 55.0718 79.7236 54.9057C79.5505 54.8503 79.4352 54.8226 79.3775 54.8226C79.3775 55.321 79.6082 55.6256 80.0698 55.7364C80.5314 55.7918 81.1084 55.8195 81.8007 55.8195C82.0315 55.8195 82.2623 55.8472 82.4931 55.9026C82.7816 55.9026 83.0412 55.9026 83.272 55.9026C86.2145 56.1795 88.8109 56.9271 91.0611 58.1455C93.3113 59.3085 95.0133 60.97 96.1673 63.1299C97.3212 65.2344 97.6962 67.8373 97.2924 70.9387ZM74.9636 84.3133C74.9059 83.538 74.5309 83.1226 73.8385 83.0672C73.2039 82.9565 72.5981 83.0949 72.0211 83.4826C71.4441 83.8149 71.2133 84.341 71.3287 85.061C72.0211 85.0056 72.6558 84.9225 73.2327 84.8117C73.8097 84.6456 74.3867 84.4795 74.9636 84.3133ZM70.4633 89.3807C70.3479 89.713 70.0306 89.7684 69.5113 89.5469C69.1651 89.4361 68.9343 89.3807 68.8189 89.3807C68.7612 89.8238 68.9055 90.073 69.2516 90.1284C69.6555 90.1838 70.0305 90.1284 70.3767 89.9622C70.7229 89.7961 70.7518 89.6023 70.4633 89.3807Z" fill="#4798FF"/>
<path d="M59.2173 8.33611C58.0397 8.96402 56.9743 9.76317 56.0209 10.7336C55.1237 11.704 54.2265 12.6743 53.3292 13.6447C52.432 14.6151 51.3946 15.4428 50.217 16.1278C49.488 18.0115 48.6188 20.1806 47.6094 22.6352C46.6 25.0897 45.9271 27.6869 45.5906 30.4269C45.142 30.4269 44.9177 30.541 44.9177 30.7694C44.9177 30.9977 44.9177 31.226 44.9177 31.4544C44.9177 31.6256 44.6934 31.7398 44.2448 31.7969C44.1887 32.1964 44.1887 32.4248 44.2448 32.4818C44.3569 32.5389 44.4691 32.5389 44.5812 32.4818C44.8616 32.4248 45.0299 32.5675 45.0859 32.9099C44.8055 34.8507 44.4971 36.9628 44.1607 39.2461C43.8242 41.4723 43.5718 43.4131 43.4036 45.0684C43.3475 45.3538 43.4036 45.5822 43.5719 45.7534C43.7401 45.8676 43.9083 45.9817 44.0765 46.0959C44.1326 46.153 44.1887 46.1815 44.2448 46.1815C43.9083 46.8094 43.712 47.3803 43.656 47.894C43.656 48.3507 43.656 48.8073 43.656 49.264C43.712 49.7206 43.712 50.1773 43.656 50.6339C43.656 51.0335 43.4877 51.4902 43.1513 52.0039C43.4877 52.6318 43.712 53.488 43.8242 54.5726C43.9364 55.6572 44.0205 56.7988 44.0765 57.9975C44.1326 59.5387 44.2448 61.08 44.413 62.6212C44.6373 64.1053 45.0298 65.3897 45.5906 66.4742C46.1514 67.5588 47.0767 68.2438 48.3664 68.5292C49.1515 68.415 49.7123 68.1011 50.0487 67.5873C50.3852 67.1307 50.8899 66.8167 51.5628 66.6455C50.8338 67.5588 50.1329 68.5863 49.4599 69.7279C48.787 70.9266 48.1421 71.8399 47.5253 72.4678C46.0673 72.5249 44.7495 71.9826 43.5719 70.841C42.3942 69.6994 41.525 68.5862 40.9643 67.5017C39.8427 65.3326 39.0576 62.821 38.609 59.9669C38.2165 57.0557 37.9922 54.0874 37.9361 51.0621C37.9361 48.0367 37.9641 45.2397 38.0202 42.671C38.0202 42.2143 38.0202 41.7862 38.0202 41.3866C38.0202 40.93 38.0202 40.5019 38.0202 40.1023C38.6371 35.707 39.4221 31.3973 40.3755 27.1732C41.3848 22.9491 42.5905 18.6109 43.9924 14.1585C41.9737 14.3297 39.7025 14.5295 37.1791 14.7578C34.7117 14.9862 31.8237 15.4428 28.5152 16.1278C28.2348 16.1849 28.0105 16.1849 27.8422 16.1278C27.674 16.0137 27.5058 15.8709 27.3375 15.6997C27.0572 15.4143 26.8048 15.2716 26.5805 15.2716C26.4123 15.3858 26.3001 15.5855 26.244 15.8709C26.188 16.0993 26.0478 16.2705 25.8235 16.3847C25.2627 16.3276 24.6178 16.2991 23.8888 16.2991C23.2159 16.2991 22.5149 16.2991 21.7859 16.2991C19.5428 16.242 17.1035 16.1564 14.4679 16.0422C11.8323 15.8709 9.28075 15.4999 6.81336 14.9291C4.40205 14.3012 2.3272 13.3023 0.58881 11.9323C0.476655 11.4756 0.420577 11.0761 0.420577 10.7336C0.420577 10.334 0.448616 9.96295 0.504693 9.62046C0.504693 9.10672 0.476654 8.62152 0.420577 8.16487C0.420577 7.65113 0.280385 7.08031 0 6.45241C0.616847 5.42493 1.54212 4.73994 2.77581 4.39745C4.00951 3.99787 5.29928 3.68392 6.64513 3.45559C8.04705 3.17018 9.19663 2.68499 10.0939 2C10.3743 2.51374 10.2901 3.05602 9.84152 3.62684C9.44898 4.14058 8.97233 4.68286 8.41156 5.25368C8.01902 5.59617 7.62648 5.96721 7.23394 6.36678C6.89747 6.76636 6.67317 7.16593 6.56101 7.56551C9.25271 8.42174 12.2528 8.96402 15.5614 9.19234C18.8699 9.36359 22.2065 9.27797 25.5711 8.93547C28.9357 8.59298 32.4125 8.27903 36.0014 7.99362C39.6465 7.65112 43.0672 7.05177 46.2635 6.19554C49.516 5.3393 52.2077 3.94079 54.3386 2C56.0209 2.05708 57.3668 2.65644 58.3762 3.79808C59.4416 4.88264 59.722 6.39532 59.2173 8.33611Z" fill="#4798FF"/>
</svg>
