<svg width="92" height="96" viewBox="0 0 92 96" fill="none" xmlns="http://www.w3.org/2000/svg">
<path d="M44.1878 1.88134C44.9061 0.342835 47.0939 0.342835 47.8122 1.88134L54.6731 16.5758C55.1633 17.6257 56.4403 18.0407 57.454 17.4794L71.6418 9.62403C73.1272 8.80158 74.8971 10.0875 74.574 11.7544L71.4873 27.6752C71.2668 28.8127 72.0561 29.899 73.2061 30.0408L89.3015 32.025C90.9866 32.2328 91.6627 34.3135 90.4214 35.4721L78.5663 46.538C77.7193 47.3286 77.7193 48.6714 78.5663 49.462L90.4215 60.5279C91.6627 61.6865 90.9866 63.7672 89.3014 63.975L73.2061 65.9592C72.0561 66.101 71.2668 67.1873 71.4873 68.3248L74.574 84.2456C74.8971 85.9125 73.1272 87.1984 71.6418 86.376L57.454 78.5206C56.4403 77.9593 55.1633 78.3743 54.6731 79.4242L47.8122 94.1187C47.0939 95.6572 44.9061 95.6572 44.1878 94.1187L37.3269 79.4242C36.8367 78.3743 35.5597 77.9593 34.546 78.5206L20.3582 86.376C18.8728 87.1984 17.1029 85.9125 17.426 84.2456L20.5127 68.3248C20.7332 67.1873 19.9439 66.101 18.7939 65.9592L2.69855 63.975C1.01337 63.7672 0.337318 61.6865 1.57855 60.5279L13.4337 49.462C14.2807 48.6714 14.2807 47.3286 13.4337 46.538L1.57855 35.4721C0.337317 34.3135 1.01337 32.2328 2.69855 32.025L18.7939 30.0408C19.944 29.899 20.7332 28.8127 20.5127 27.6752L17.426 11.7544C17.1029 10.0875 18.8728 8.80158 20.3582 9.62403L34.546 17.4794C35.5597 18.0407 36.8367 17.6257 37.3269 16.5758L44.1878 1.88134Z" fill="#4A9DFF"/>
</svg>
