<svg width="100" height="100" viewBox="0 0 100 100" fill="none" xmlns="http://www.w3.org/2000/svg">
<g clip-path="url(#clip0_117_485)">
<rect width="100" height="100" fill="white"/>
<circle cx="-8.58827" cy="83.9937" r="31.7796" transform="rotate(-30 -8.58827 83.9937)" fill="#166534"/>
<circle cx="49.9396" cy="50.2027" r="31.7796" transform="rotate(-30 49.9396 50.2027)" fill="#166534"/>
<circle cx="108.467" cy="16.4117" r="31.7796" transform="rotate(-30 108.467 16.4117)" fill="#166534"/>
<path d="M1.504 -9.936H9.312V1.136H1.504V-9.936ZM-10.272 -2.64H20.96V4.336H-10.272V-2.64ZM20.512 6H48.8V13.296H20.512V6ZM-0.287999 14.192V19.696H10.912V14.192H-0.287999ZM-7.264 7.92H18.4V26.032H-7.264V7.92ZM2.016 23.408H9.376V42.48C9.376 44.0587 9.184 45.36 8.8 46.384C8.45867 47.408 7.75467 48.2187 6.688 48.816C5.62133 49.3707 4.384 49.712 2.976 49.84C1.61067 49.968 0.0106672 50.032 -1.824 50.032C-1.99467 49.008 -2.31467 47.8347 -2.784 46.512C-3.21067 45.1893 -3.65867 44.0587 -4.128 43.12C-3.06133 43.1627 -2.016 43.184 -0.992 43.184C0.0746673 43.184 0.757334 43.184 1.056 43.184C1.696 43.184 2.016 42.8853 2.016 42.288V23.408ZM-6.752 28.464L0.160001 29.936C-0.479999 32.9653 -1.376 35.952 -2.528 38.896C-3.63733 41.84 -4.896 44.336 -6.304 46.384C-6.688 45.9573 -7.24267 45.4667 -7.968 44.912C-8.65067 44.4 -9.35467 43.888 -10.08 43.376C-10.8053 42.8213 -11.4453 42.3947 -12 42.096C-10.7627 40.3893 -9.71733 38.32 -8.864 35.888C-7.968 33.456 -7.264 30.9813 -6.752 28.464ZM10.656 29.872L16.672 27.824C17.568 29.488 18.3787 31.3653 19.104 33.456C19.872 35.504 20.4267 37.2533 20.768 38.704L14.432 41.136C14.1333 39.6 13.6213 37.7867 12.896 35.696C12.2133 33.5627 11.4667 31.6213 10.656 29.872ZM36.192 -5.84L42.208 -8.528C43.6587 -7.03467 44.9813 -5.328 46.176 -3.408C47.3707 -1.53067 48.2453 0.175997 48.8 1.712L42.464 4.784C41.952 3.248 41.12 1.49867 39.968 -0.464001C38.816 -2.46933 37.5573 -4.26133 36.192 -5.84ZM27.744 -10H35.168V6.448C35.168 9.69067 35.0187 13.232 34.72 17.072C34.4213 20.912 33.8027 24.816 32.864 28.784C31.9253 32.7093 30.5173 36.528 28.64 40.24C26.8053 43.952 24.3093 47.3227 21.152 50.352C20.6827 49.8827 20.064 49.3493 19.296 48.752C18.528 48.1973 17.7173 47.6427 16.864 47.088C16.0533 46.5333 15.3067 46.1067 14.624 45.808C17.6533 43.0773 20.0213 40.048 21.728 36.72C23.4773 33.3493 24.7787 29.872 25.632 26.288C26.528 22.704 27.104 19.2267 27.36 15.856C27.616 12.4427 27.744 9.30667 27.744 6.448V-10ZM32.864 15.984H39.84V40.816C39.84 41.0293 39.8613 41.2427 39.904 41.456C39.9467 41.6267 40.0107 41.7547 40.096 41.84C40.352 42.1387 40.672 42.288 41.056 42.288C41.2267 42.288 41.44 42.288 41.696 42.288C41.952 42.288 42.1653 42.288 42.336 42.288C42.5493 42.288 42.7627 42.2667 42.976 42.224C43.1893 42.1387 43.3387 42.032 43.424 41.904C43.5947 41.776 43.7227 41.5627 43.808 41.264C43.8933 40.9653 43.9573 40.6667 44 40.368C44.0853 39.7707 44.1493 38.832 44.192 37.552C44.2347 36.2293 44.2347 34.7573 44.192 33.136C44.832 33.6907 45.6853 34.2667 46.752 34.864C47.8187 35.4613 48.8 35.888 49.696 36.144C49.6533 37.296 49.5893 38.4693 49.504 39.664C49.4613 40.816 49.376 41.8613 49.248 42.8C49.1627 43.7387 49.0347 44.464 48.864 44.976C48.48 46.512 47.7333 47.6853 46.624 48.496C46.1547 48.8373 45.5573 49.0933 44.832 49.264C44.1493 49.4773 43.4667 49.584 42.784 49.584C42.4 49.584 41.9733 49.584 41.504 49.584C41.0347 49.584 40.5653 49.584 40.096 49.584C39.6693 49.584 39.2853 49.584 38.944 49.584C38.0907 49.584 37.2587 49.456 36.448 49.2C35.6373 48.944 34.9333 48.5173 34.336 47.92C33.952 47.4933 33.6533 47.0453 33.44 46.576C33.2267 46.1067 33.0773 45.4667 32.992 44.656C32.9067 43.8453 32.864 42.7573 32.864 41.392V15.984Z" fill="#FF99AC"/>
<path d="M72.848 84.176H106.448V109.776H99.088V91.152H79.888V110.096H72.848V84.176ZM101.328 50L107.216 56.016C104.101 57.2107 100.645 58.256 96.848 59.152C93.0507 60.0053 89.1467 60.7093 85.136 61.264C81.168 61.8187 77.2853 62.2667 73.488 62.608C73.36 61.712 73.0613 60.624 72.592 59.344C72.1653 58.0213 71.7387 56.9333 71.312 56.08C74.0427 55.7813 76.7947 55.44 79.568 55.056C82.384 54.672 85.1147 54.224 87.76 53.712C90.4053 53.2 92.88 52.6453 95.184 52.048C97.488 51.408 99.536 50.7253 101.328 50ZM85.968 57.232H93.264V88.208H85.968V57.232ZM68.88 68.688H109.648V75.984H68.88V68.688ZM77.904 100.496H102.16V107.472H77.904V100.496ZM53.072 56.4L57.424 50.832C58.6187 51.4293 59.9627 52.112 61.456 52.88C62.9493 53.648 64.4 54.416 65.808 55.184C67.2587 55.952 68.432 56.6347 69.328 57.232L64.784 63.44C63.9307 62.8 62.8213 62.0747 61.456 61.264C60.0907 60.4533 58.6613 59.6213 57.168 58.768C55.6747 57.872 54.3093 57.0827 53.072 56.4ZM50 74.128L54.16 68.432C55.3547 68.944 56.72 69.584 58.256 70.352C59.792 71.12 61.2853 71.888 62.736 72.656C64.1867 73.3813 65.36 74.0427 66.256 74.64L61.968 81.04C61.1147 80.4 59.984 79.6747 58.576 78.864C57.2107 78.0533 55.76 77.2213 54.224 76.368C52.688 75.5147 51.28 74.768 50 74.128ZM50.96 104.208C52.112 102.587 53.3707 100.688 54.736 98.512C56.144 96.2933 57.5733 93.9467 59.024 91.472C60.4747 88.9547 61.84 86.4587 63.12 83.984L68.752 89.104C67.6427 91.3227 66.448 93.6053 65.168 95.952C63.9307 98.2987 62.6507 100.603 61.328 102.864C60.048 105.125 58.7467 107.301 57.424 109.392L50.96 104.208Z" fill="#FF99AC"/>
</g>
<defs>
<clipPath id="clip0_117_485">
<rect width="100" height="100" fill="white"/>
</clipPath>
</defs>
</svg>
