<svg width="100" height="100" viewBox="0 0 100 100" fill="none" xmlns="http://www.w3.org/2000/svg">
<g clip-path="url(#clip0_112_36)">
<mask id="mask0_112_36" style="mask-type:luminance" maskUnits="userSpaceOnUse" x="0" y="0" width="100" height="100">
<path d="M100 0H0V100H100V0Z" fill="white"/>
</mask>
<g mask="url(#mask0_112_36)">
<path d="M133 -18H-52V167H133V-18Z" fill="white"/>
<path d="M109.381 80.8587L174 79.3989L173.53 122.227L108.819 120.862L127.626 182.311L86.5983 195L68.6803 131.077L16.0921 169.785L-8 133.808L45.6575 98.2745L-4.20451 58.6654L22.7065 25.2931L70.2107 66.8508L92.4367 5L131.607 19.0079L109.381 80.8587Z" fill="#69DEFB"/>
<path d="M-8.42697 68.3115V39.239C-8.42697 32.1046 -9.72472 26.9917 -12.3202 23.9001C-14.9157 20.8086 -18.809 19.2628 -24 19.2628V8.56124L-6.12641 0H39V19.2628H9.26966L9.0927 19.9762C12.1601 21.8787 14.4017 24.6136 15.8174 28.1807C17.3511 31.7479 18.118 36.4447 18.118 42.2711V68.3115H-8.42697ZM16.1713 150C10.8624 150 6.37922 149.168 2.72191 147.503C-0.935392 145.838 -3.70787 143.341 -5.59551 140.012C-7.48315 136.564 -8.42697 132.283 -8.42697 127.17V50.4756H18.118V123.96C18.118 126.219 18.5899 127.883 19.5337 128.954C20.5955 130.024 22.1882 130.559 24.3118 130.559C25.2556 130.559 26.2584 130.44 27.3202 130.202C28.382 129.964 29.3848 129.667 30.3287 129.31L32.8062 146.433C30.5646 147.622 28.0281 148.514 25.1966 149.108C22.3652 149.703 19.3567 150 16.1713 150Z" fill="#00ACD7"/>
<path d="M46.7635 148V118.232C46.7635 110.745 48.2331 104.982 51.1723 100.941C54.1115 96.9008 58.2852 94.0487 63.6933 92.385L63.8697 91.672L45 84.7201V80.0856C45 74.2626 46.7047 68.915 50.1142 64.0428C53.5237 59.1705 58.5203 55.3084 65.1041 52.4563C71.8055 49.4854 79.9177 48 89.4407 48C98.3759 48 106.077 49.426 112.543 52.2781C119.009 55.0113 124.006 59.1705 127.533 64.7558C131.177 70.2222 133 77.1741 133 85.6114V148H106.547V87.2157C106.547 81.2739 104.96 76.8176 101.785 73.8467C98.7286 70.8758 94.3786 69.3904 88.7353 69.3904C83.3272 69.3904 79.2711 70.5787 76.567 72.9554C73.8629 75.2133 72.3933 78.0059 72.1582 81.3333L87.8535 88.6417L85.9137 100.228C81.6812 100.466 78.5069 102.011 76.3906 104.863C74.2744 107.715 73.2163 111.577 73.2163 116.449V148H46.7635Z" fill="#00ACD7"/>
<path d="M-27.6634 0.158144L-6.89085 -25.5271L9.68623 -11.1551L-12.2195 13.6296L18 26.6517L9.40675 46.856L-21.4858 32.6676L-23.7315 66L-45.745 63.4773L-41.9058 30.7794L-73.8496 37.1037L-78 15.5528L-46.0735 10.7936L-62.8978 -18.3644L-44.4876 -29L-27.6634 0.158144Z" fill="#69DEFB"/>
<path d="M-31.8019 147.9L14 146.862L13.666 177.292L-32.1999 176.322L-18.8697 219.983L-47.9498 229L-60.6498 183.581L-97.9235 211.084L-115 185.521L-76.9682 160.274L-112.31 132.131L-93.2355 108.419L-59.5651 137.946L-43.8116 94L-16.0483 103.953L-31.8019 147.9Z" fill="#69DEFB"/>
</g>
</g>
<defs>
<clipPath id="clip0_112_36">
<rect width="100" height="100" fill="white"/>
</clipPath>
</defs>
</svg>
