<svg width="100" height="100" viewBox="0 0 100 100" fill="none" xmlns="http://www.w3.org/2000/svg">
<g clip-path="url(#clip0_116_440)">
<rect width="100" height="100" fill="white"/>
<path d="M11.5 -28L16.2804 -2.21249L35.3053 -20.2652L24.0152 3.40718L50.0178 -0.0151882L26.9696 12.5L50.0178 25.0152L24.0152 21.5928L35.3053 45.2652L16.2804 27.2125L11.5 53L6.71962 27.2125L-12.3053 45.2652L-1.01519 21.5928L-27.0178 25.0152L-3.96962 12.5L-27.0178 -0.0151882L-1.01519 3.40718L-12.3053 -20.2652L6.71962 -2.21249L11.5 -28Z" fill="#D9D9D9"/>
<path d="M52.0712 -38.3244L81.1289 -13.3229L73.9199 -50.972L90.2964 -16.3132L99.024 -53.6395L99.8876 -15.3162L123.043 -45.8657L108.244 -10.5043L141.823 -28.9947L113.921 -2.7095L152.117 -5.9436L115.937 6.72035L152.146 19.3017L113.942 16.1548L141.904 42.3762L108.283 23.9625L123.163 59.29L99.9379 28.7934L99.1617 67.1187L90.3491 29.8123L74.0517 64.5084L81.1748 26.843L52.1742 51.9107L74.0013 20.3988L37.312 31.5037L70.0692 11.5941L32.0351 6.81605L70.0582 1.95124L37.2557 -17.8836L73.9702 -6.86242L52.0712 -38.3244Z" fill="#FB2C53"/>
<path d="M88 59L92.8237 80.3546L111.335 68.6655L99.6454 87.1763L121 92L99.6454 96.8237L111.335 115.335L92.8237 103.645L88 125L83.1763 103.645L64.6655 115.335L76.3546 96.8237L55 92L76.3546 87.1763L64.6655 68.6655L83.1763 80.3546L88 59Z" fill="#D9D9D9"/>
<path d="M65.4749 65.3363C50.0492 80.762 32.1623 87.8851 25.5233 81.2462C18.8844 74.6073 26.0075 56.7204 41.4332 41.2947C56.859 25.869 74.7459 18.7459 81.3848 25.3848C88.0237 32.0237 80.9006 49.9106 65.4749 65.3363Z" fill="#D9D9D9"/>
<path d="M59.1109 58.9723C43.6852 74.3981 25.7983 81.5212 19.1594 74.8822C12.5205 68.2433 19.6436 50.3564 35.0693 34.9307C50.495 19.505 68.3819 12.3819 75.0208 19.0208C81.6597 25.6597 74.5366 43.5466 59.1109 58.9723Z" fill="#BFBFBF"/>
<path d="M11.5 47L18.1508 76.4435L43.6734 60.3266L27.5565 85.8492L57 92.5L27.5565 99.1508L43.6734 124.673L18.1508 108.557L11.5 138L4.84917 108.557L-20.6734 124.673L-4.55652 99.1508L-34 92.5L-4.55652 85.8492L-20.6734 60.3266L4.84917 76.4435L11.5 47Z" fill="#FB2C53"/>
</g>
<defs>
<clipPath id="clip0_116_440">
<rect width="100" height="100" fill="white"/>
</clipPath>
</defs>
</svg>
