<svg width="100" height="100" viewBox="0 0 100 100" fill="none" xmlns="http://www.w3.org/2000/svg">
<g clip-path="url(#clip0_108_2)">
<rect width="100" height="100" fill="white"/>
<path d="M33.5604 78.7169C37.0716 65.6128 35.7629 5.13876 74.8158 1.39949C73.0436 -10.7533 68.6506 -21.0322 62.1922 -28.1374C55.7339 -35.2427 47.5004 -38.8551 38.5328 -38.518C29.5652 -38.1808 20.2664 -33.9092 11.8122 -26.2432C3.35796 -18.5773 -3.87191 -7.86138 -8.96317 4.54944C-14.0544 16.9603 -16.7784 30.5085 -16.7907 43.481C-16.8029 56.4536 2.57975 44.946 7.65065 54.1077C12.7215 63.2693 3.2529 92.6887 11.6977 94.9515L29.4508 28.6962L33.5604 78.7169Z" fill="#F5961E"/>
<path d="M54.8385 33.3399C54.8385 46.9062 71.7545 104.981 35 118.7C39.8572 129.98 46.7609 138.772 54.8382 143.964C62.9154 149.155 71.8034 150.514 80.3781 147.867C88.9529 145.22 96.8293 138.688 103.011 129.095C109.193 119.502 113.403 107.28 115.109 93.9743C116.815 80.6686 115.939 66.8769 112.594 54.3433C109.248 41.8097 93.504 57.9417 86.2347 50.4047C78.9654 42.8676 80.4971 12 71.7543 12L71.7543 80.5925L54.8385 33.3399Z" fill="#F5961E"/>
<path fill-rule="evenodd" clip-rule="evenodd" d="M56.0002 40.1406C67.9591 33.3068 86.337 42.8313 97.0876 61.4519C97.5923 62.326 98.0712 63.2046 98.5245 64.0862C98.5455 64.0742 98.5666 64.0621 98.5876 64.0499C110.545 57.1464 111.508 36.4283 100.738 17.7749C89.9687 -0.878478 71.545 -10.4036 59.5876 -3.50005C48.1907 3.08 46.7818 22.2101 56.0002 40.1406Z" fill="#F5A3CB"/>
<path fill-rule="evenodd" clip-rule="evenodd" d="M13.0001 63.9998C26.7737 63.9385 37.9272 46.5012 37.9272 25C37.9272 23.9906 37.9027 22.9902 37.8544 22.0002C37.8787 22.0001 37.903 22 37.9272 22C51.7344 22 62.9272 39.4609 62.9272 61C62.9272 82.5391 51.7344 100 37.9272 100C24.7672 100 13.982 84.1373 13.0001 63.9998Z" fill="#EC4698"/>
</g>
<defs>
<clipPath id="clip0_108_2">
<rect width="100" height="100" fill="white"/>
</clipPath>
</defs>
</svg>
