<svg width="100" height="100" viewBox="0 0 100 100" fill="none" xmlns="http://www.w3.org/2000/svg">
<g clip-path="url(#clip0_131_2)">
<rect width="100" height="100" fill="white"/>
<path d="M87.2317 53.5697L122.016 52.782L121.763 75.8917L86.9294 75.1555L97.0532 108.313L74.968 115.16L65.3228 80.6675L37.0148 101.554L24.0461 82.1411L52.9297 62.9672L26.0892 41.5943L40.5753 23.5867L66.1466 46.0111L78.1108 12.6366L99.1959 20.1952L87.2317 53.5697Z" fill="#69DEFB"/>
<path d="M23.448 46.768V31.12C23.448 27.28 22.744 24.528 21.336 22.864C19.928 21.2 17.816 20.368 15 20.368V14.608L24.696 10H49.176V20.368H33.048L32.952 20.752C34.616 21.776 35.832 23.248 36.6 25.168C37.432 27.088 37.848 29.616 37.848 32.752V46.768H23.448ZM36.792 90.736C33.912 90.736 31.48 90.288 29.496 89.392C27.512 88.496 26.008 87.152 24.984 85.36C23.96 83.504 23.448 81.2 23.448 78.448V37.168H37.848V76.72C37.848 77.936 38.104 78.832 38.616 79.408C39.192 79.984 40.056 80.272 41.208 80.272C41.72 80.272 42.264 80.208 42.84 80.08C43.416 79.952 43.96 79.792 44.472 79.6L45.816 88.816C44.6 89.456 43.224 89.936 41.688 90.256C40.152 90.576 38.52 90.736 36.792 90.736Z" fill="#00ACD7"/>
<path d="M53.1728 89.776V73.744C53.1728 69.712 53.9728 66.608 55.5728 64.432C57.1728 62.256 59.4448 60.72 62.3888 59.824L62.4848 59.44L52.2128 55.696V53.2C52.2128 50.064 53.1408 47.184 54.9968 44.56C56.8528 41.936 59.5728 39.856 63.1568 38.32C66.8048 36.72 71.2208 35.92 76.4048 35.92C81.2688 35.92 85.4608 36.688 88.9808 38.224C92.5008 39.696 95.2208 41.936 97.1408 44.944C99.1248 47.888 100.117 51.632 100.117 56.176V89.776H85.7168V57.04C85.7168 53.84 84.8528 51.44 83.1248 49.84C81.4608 48.24 79.0928 47.44 76.0208 47.44C73.0768 47.44 70.8688 48.08 69.3968 49.36C67.9248 50.576 67.1248 52.08 66.9968 53.872L75.5408 57.808L74.4848 64.048C72.1808 64.1761 70.4528 65.008 69.3008 66.544C68.1488 68.08 67.5728 70.16 67.5728 72.784V89.776H53.1728Z" fill="#00ACD7"/>
<path d="M13.3703 9.9572L24.5709 -3.8839L33.5093 3.86076L21.6977 17.2166L37.9921 24.2339L33.3586 35.1215L16.7013 27.4757L15.4904 45.4377L3.62068 44.0783L5.69076 26.4582L-11.5334 29.8662L-13.7713 18.253L3.44351 15.6884L-5.62815 -0.0241502L4.29863 -5.75538L13.3703 9.9572Z" fill="#69DEFB"/>
<path d="M11.1776 89.541L35.9305 88.9804L35.75 105.425L10.9625 104.901L18.1666 128.496L2.45073 133.369L-4.41282 108.824L-24.5568 123.687L-33.7855 109.872L-13.2318 96.2282L-32.3316 81.0192L-22.0232 68.2049L-3.8266 84.1622L4.68716 60.4128L19.6914 65.7916L11.1776 89.541Z" fill="#69DEFB"/>
</g>
<defs>
<clipPath id="clip0_131_2">
<rect width="100" height="100" fill="white"/>
</clipPath>
</defs>
</svg>
