<svg width="874" height="656" viewBox="0 0 874 656" fill="none" xmlns="http://www.w3.org/2000/svg">
<path fill-rule="evenodd" clip-rule="evenodd" d="M746.313 240.914L700.353 328.555L746.313 416.195L765.14 405.656V251.453L746.313 240.914Z" fill="#E25444"/>
<path fill-rule="evenodd" clip-rule="evenodd" d="M746.313 240.914L654.392 251.453L607.602 328.555L654.392 405.656L746.313 416.195V240.914Z" fill="#7B1D13"/>
<path fill-rule="evenodd" clip-rule="evenodd" d="M560.811 240.914L545.86 247.57V409.539L560.811 416.195L654.393 328.555L560.811 240.914Z" fill="#58150D"/>
<path fill-rule="evenodd" clip-rule="evenodd" d="M560.61 240.729L654.517 266.861V392.59L560.61 416.257V240.729Z" fill="#E25444"/>
<path fill-rule="evenodd" clip-rule="evenodd" d="M654.566 280.667L614.692 274.257L654.566 228.896L694.341 274.257L654.566 280.667Z" fill="#58150D"/>
<path fill-rule="evenodd" clip-rule="evenodd" d="M694.341 274.257L654.517 280.765L614.692 274.257V228.896" fill="#58150D"/>
<path fill-rule="evenodd" clip-rule="evenodd" d="M654.566 375.826L614.692 383.223L654.566 422.174L694.341 383.223L654.566 375.826Z" fill="#58150D"/>
<path fill-rule="evenodd" clip-rule="evenodd" d="M654.393 194.875L614.523 215.953V274.195L654.517 262.917L654.393 194.875Z" fill="#7B1D13"/>
<path fill-rule="evenodd" clip-rule="evenodd" d="M654.517 294.965L614.692 299.304V357.457L654.517 362.021V294.965Z" fill="#7B1D13"/>
<path fill-rule="evenodd" clip-rule="evenodd" d="M654.517 393.083L614.692 383.08V440.248L654.517 461.125V393.083Z" fill="#7B1D13"/>
<path fill-rule="evenodd" clip-rule="evenodd" d="M694.341 383.08L654.517 393.086V461.125L694.341 440.248V383.08Z" fill="#E25444"/>
<path fill-rule="evenodd" clip-rule="evenodd" d="M654.517 294.965L694.341 299.304V357.457L654.517 362.021V294.965Z" fill="#E25444"/>
<path fill-rule="evenodd" clip-rule="evenodd" d="M654.393 194.875L694.262 215.953V274.195L654.393 263.102V194.875Z" fill="#E25444"/>
<g clip-path="url(#clip0_77_1157)">
<path d="M128.163 290.789C124.473 286.415 121.296 281.974 120.646 281.051C120.578 280.983 120.476 280.983 120.407 281.051C119.758 281.974 116.581 286.415 112.89 290.789C81.2178 331.138 117.879 358.369 117.879 358.369L118.186 358.574C118.46 362.776 119.143 368.824 119.143 368.824H120.51H121.876C121.876 368.824 122.56 362.81 122.833 358.574L123.141 358.335C123.175 358.369 159.836 331.138 128.163 290.789ZM120.51 357.788C120.51 357.788 118.87 356.387 118.426 355.67V355.602L120.407 311.664C120.407 311.527 120.612 311.527 120.612 311.664L122.594 355.602V355.67C122.15 356.387 120.51 357.788 120.51 357.788Z" fill="#00684A"/>
<path d="M189.119 348.521L173.842 311.516L173.808 311.414H161.922V313.901H163.84C164.422 313.901 164.97 314.14 165.381 314.549C165.792 314.957 165.998 315.503 165.998 316.082L165.655 353.325C165.655 354.484 164.696 355.438 163.531 355.472L161.579 355.506V357.96H173.157V355.506L171.958 355.472C170.793 355.438 169.834 354.484 169.834 353.325V318.229L186.482 357.96C186.721 358.539 187.269 358.914 187.886 358.914C188.502 358.914 189.051 358.539 189.29 357.96L205.561 319.115L205.801 353.325C205.801 354.518 204.841 355.472 203.643 355.506H202.409V357.96H215.974V355.506H214.124C212.96 355.506 212 354.518 211.966 353.36L211.863 316.116C211.863 314.923 212.822 313.969 213.987 313.935L215.974 313.901V311.414H204.396L189.119 348.521Z" fill="#00684A"/>
<path d="M295.64 354.859C295.262 354.485 295.056 353.974 295.056 353.362V335.119C295.056 331.647 294.026 328.924 291.965 326.984C289.939 325.044 287.123 324.058 283.62 324.058C278.708 324.058 274.828 326.032 272.115 329.912C272.08 329.98 271.978 330.014 271.875 330.014C271.771 330.014 271.703 329.946 271.703 329.844L270.432 324.976H268.303L262.842 328.074V329.775H264.25C264.903 329.775 265.452 329.946 265.83 330.286C266.208 330.626 266.414 331.137 266.414 331.852V353.328C266.414 353.941 266.208 354.451 265.83 354.825C265.452 355.2 264.937 355.404 264.319 355.404H262.945V357.888H275.515V355.404H274.141C273.523 355.404 273.008 355.2 272.63 354.825C272.252 354.451 272.046 353.941 272.046 353.328V339.101C272.046 337.297 272.458 335.493 273.214 333.724C274.003 331.988 275.171 330.524 276.717 329.401C278.262 328.278 280.117 327.734 282.246 327.734C284.65 327.734 286.47 328.482 287.603 329.98C288.737 331.477 289.321 333.417 289.321 335.732V353.294C289.321 353.906 289.114 354.417 288.737 354.791C288.359 355.166 287.844 355.37 287.225 355.37H285.852V357.854H298.421V355.37H297.048C296.532 355.438 296.051 355.234 295.64 354.859Z" fill="#00684A"/>
<path d="M410.476 314.22C407.002 312.372 403.119 311.414 398.929 311.414H382.579V313.912H384.18C384.793 313.912 385.338 314.152 385.883 314.699C386.394 315.212 386.667 315.794 386.667 316.41V353.234C386.667 353.85 386.394 354.432 385.883 354.945C385.372 355.458 384.793 355.732 384.18 355.732H382.579V358.23H398.929C403.119 358.23 407.002 357.272 410.476 355.424C413.951 353.576 416.778 350.838 418.822 347.348C420.865 343.857 421.921 339.647 421.921 334.856C421.921 330.065 420.865 325.89 418.822 322.365C416.744 318.806 413.951 316.068 410.476 314.22ZM415.347 334.788C415.347 339.168 414.564 342.864 413.031 345.842C411.498 348.819 409.454 351.043 406.934 352.481C404.413 353.918 401.62 354.637 398.622 354.637H395.318C394.705 354.637 394.16 354.397 393.615 353.85C393.104 353.336 392.832 352.755 392.832 352.139V317.403C392.832 316.787 393.07 316.239 393.615 315.691C394.126 315.178 394.705 314.904 395.318 314.904H398.622C401.62 314.904 404.413 315.623 406.934 317.06C409.454 318.498 411.498 320.722 413.031 323.7C414.564 326.677 415.347 330.407 415.347 334.788Z" fill="#00684A"/>
<path d="M460.569 337.286C459.057 335.541 456.139 334.069 452.707 333.282C457.445 330.92 459.881 327.601 459.881 323.323C459.881 320.996 459.266 318.908 458.027 317.129C456.792 315.349 455.041 313.912 452.81 312.919C450.576 311.927 447.966 311.414 445.013 311.414H426.506V313.912H427.983C428.601 313.912 429.15 314.152 429.699 314.699C430.215 315.212 430.489 315.794 430.489 316.41V353.234C430.489 353.85 430.215 354.432 429.699 354.945C429.185 355.458 428.601 355.732 427.983 355.732H426.369V358.23H446.457C449.512 358.23 452.362 357.717 454.938 356.69C457.514 355.664 459.573 354.158 461.051 352.173C462.56 350.188 463.316 347.758 463.316 344.952C463.282 341.94 462.389 339.373 460.569 337.286ZM437.528 353.884C437.013 353.371 436.739 352.789 436.739 352.173V335.643H446.286C449.649 335.643 452.225 336.499 454.011 338.21C455.797 339.921 456.689 342.146 456.689 344.883C456.689 346.526 456.275 348.135 455.523 349.606C454.733 351.112 453.563 352.31 451.985 353.234C450.439 354.158 448.517 354.637 446.286 354.637H439.245C438.627 354.671 438.078 354.397 437.528 353.884ZM436.773 332.118V317.437C436.773 316.821 437.013 316.273 437.563 315.726C438.078 315.212 438.662 314.939 439.28 314.939H443.813C447.073 314.939 449.478 315.76 450.99 317.334C452.499 318.943 453.255 320.996 453.255 323.529C453.255 326.129 452.533 328.217 451.127 329.791C449.717 331.331 447.589 332.118 444.774 332.118H436.773Z" fill="#00684A"/>
<path d="M247.789 326.24C245.165 324.808 242.235 324.058 239.066 324.058C235.897 324.058 232.932 324.774 230.343 326.24C227.719 327.673 225.64 329.753 224.107 332.379C222.573 335.005 221.79 338.075 221.79 341.486C221.79 344.896 222.573 347.966 224.107 350.592C225.64 353.218 227.719 355.299 230.343 356.731C232.966 358.163 235.897 358.914 239.066 358.914C242.235 358.914 245.199 358.197 247.789 356.731C250.413 355.299 252.492 353.218 254.025 350.592C255.558 347.966 256.342 344.896 256.342 341.486C256.342 338.075 255.558 335.005 254.025 332.379C252.492 329.753 250.413 327.707 247.789 326.24ZM250.311 341.486C250.311 345.681 249.289 349.091 247.244 351.547C245.234 354.002 242.474 355.264 239.066 355.264C235.658 355.264 232.898 354.002 230.888 351.547C228.843 349.091 227.821 345.681 227.821 341.486C227.821 337.291 228.843 333.88 230.888 331.424C232.898 328.969 235.658 327.707 239.066 327.707C242.474 327.707 245.234 328.969 247.244 331.424C249.289 333.914 250.311 337.291 250.311 341.486Z" fill="#00684A"/>
<path d="M368.552 326.24C365.928 324.808 362.998 324.058 359.829 324.058C356.66 324.058 353.695 324.774 351.106 326.24C348.482 327.673 346.403 329.753 344.87 332.379C343.337 335.005 342.553 338.075 342.553 341.486C342.553 344.896 343.337 347.966 344.87 350.592C346.403 353.218 348.482 355.299 351.106 356.731C353.73 358.163 356.66 358.914 359.829 358.914C362.998 358.914 365.963 358.197 368.552 356.731C371.176 355.299 373.255 353.218 374.788 350.592C376.322 347.966 377.105 344.896 377.105 341.486C377.105 338.075 376.322 335.005 374.788 332.379C373.255 329.753 371.142 327.707 368.552 326.24ZM371.074 341.486C371.074 345.681 370.052 349.091 368.007 351.547C365.997 354.002 363.236 355.264 359.829 355.264C356.421 355.264 353.661 354.002 351.651 351.547C349.606 349.091 348.584 345.681 348.584 341.486C348.584 337.256 349.606 333.88 351.651 331.424C353.661 328.969 356.421 327.707 359.829 327.707C363.236 327.707 365.997 328.969 368.007 331.424C370.018 333.914 371.074 337.291 371.074 341.486Z" fill="#00684A"/>
<path d="M319.851 324.058C317.105 324.058 314.6 324.64 312.335 325.805C310.07 326.97 308.285 328.546 307.016 330.567C305.746 332.555 305.094 334.782 305.094 337.146C305.094 339.27 305.574 341.223 306.569 342.971C307.53 344.65 308.835 346.054 310.482 347.219L305.574 353.866C304.956 354.689 304.888 355.785 305.334 356.676C305.814 357.601 306.707 358.149 307.736 358.149H309.143C307.771 359.074 306.672 360.171 305.917 361.473C305.025 362.946 304.579 364.488 304.579 366.064C304.579 369.01 305.883 371.443 308.457 373.259C310.997 375.075 314.565 376 319.061 376C322.184 376 325.17 375.486 327.881 374.492C330.626 373.499 332.857 372.025 334.504 370.107C336.186 368.188 337.044 365.858 337.044 363.186C337.044 360.376 336.014 358.389 333.612 356.47C331.553 354.86 328.327 354.003 324.312 354.003H310.585C310.551 354.003 310.516 353.969 310.516 353.969C310.516 353.969 310.482 353.901 310.516 353.866L314.085 349.07C315.046 349.515 315.938 349.789 316.728 349.96C317.551 350.132 318.478 350.2 319.507 350.2C322.39 350.2 324.998 349.618 327.263 348.453C329.528 347.288 331.347 345.712 332.651 343.69C333.955 341.703 334.607 339.476 334.607 337.112C334.607 334.576 333.372 329.951 330.008 327.587C330.008 327.552 330.043 327.552 330.043 327.552L337.421 328.375V324.983H325.616C323.763 324.366 321.841 324.058 319.851 324.058ZM323.969 345.472C322.664 346.157 321.257 346.534 319.851 346.534C317.551 346.534 315.526 345.712 313.81 344.101C312.095 342.491 311.237 340.127 311.237 337.112C311.237 334.096 312.095 331.732 313.81 330.122C315.526 328.512 317.551 327.689 319.851 327.689C321.292 327.689 322.664 328.032 323.969 328.752C325.273 329.437 326.337 330.499 327.195 331.904C328.018 333.308 328.464 335.056 328.464 337.112C328.464 339.202 328.052 340.949 327.195 342.32C326.371 343.724 325.273 344.787 323.969 345.472ZM314.668 358.115H323.969C326.543 358.115 328.19 358.629 329.288 359.725C330.386 360.822 330.935 362.295 330.935 364.008C330.935 366.509 329.94 368.565 327.95 370.107C325.959 371.649 323.282 372.437 319.988 372.437C317.105 372.437 314.703 371.786 312.952 370.552C311.202 369.319 310.31 367.434 310.31 365.036C310.31 363.528 310.722 362.124 311.546 360.89C312.369 359.657 313.364 358.766 314.668 358.115Z" fill="#00684A"/>
<path d="M470.278 357.659C469.6 357.288 469.091 356.75 468.684 356.111C468.311 355.439 468.105 354.732 468.105 353.959C468.105 353.185 468.311 352.445 468.684 351.806C469.057 351.133 469.6 350.629 470.278 350.259C470.959 349.889 471.704 349.687 472.553 349.687C473.401 349.687 474.147 349.889 474.828 350.259C475.505 350.629 476.015 351.167 476.422 351.806C476.795 352.479 477 353.185 477 353.959C477 354.732 476.795 355.472 476.422 356.111C476.049 356.784 475.505 357.288 474.828 357.659C474.147 358.028 473.401 358.23 472.553 358.23C471.739 358.23 470.959 358.028 470.278 357.659ZM474.455 357.154C475.03 356.851 475.44 356.38 475.779 355.842C476.083 355.271 476.254 354.631 476.254 353.925C476.254 353.219 476.083 352.58 475.779 352.008C475.471 351.436 475.03 350.999 474.455 350.696C473.877 350.393 473.264 350.225 472.553 350.225C471.841 350.225 471.229 350.393 470.651 350.696C470.076 350.999 469.665 351.47 469.327 352.008C469.022 352.58 468.851 353.219 468.851 353.925C468.851 354.631 469.022 355.271 469.327 355.842C469.635 356.414 470.076 356.851 470.651 357.154C471.229 357.457 471.841 357.625 472.553 357.625C473.264 357.625 473.911 357.457 474.455 357.154ZM470.719 355.977V355.674L470.788 355.64H470.993C471.058 355.64 471.126 355.607 471.16 355.573C471.229 355.506 471.229 355.472 471.229 355.405V352.277C471.229 352.21 471.195 352.142 471.16 352.109C471.092 352.042 471.058 352.042 470.993 352.042H470.788L470.719 352.008V351.705L470.788 351.671H472.553C473.063 351.671 473.435 351.772 473.74 352.008C474.048 352.243 474.181 352.546 474.181 352.95C474.181 353.252 474.082 353.555 473.843 353.757C473.607 353.992 473.333 354.127 472.994 354.161L473.401 354.295L474.181 355.539C474.25 355.64 474.318 355.674 474.421 355.674H474.623L474.657 355.708V356.01L474.623 356.044H473.572L473.504 356.01L472.416 354.194H472.146V355.405C472.146 355.472 472.18 355.539 472.214 355.573C472.283 355.64 472.317 355.64 472.382 355.64H472.587L472.655 355.674V355.977L472.587 356.01H470.788L470.719 355.977ZM472.45 353.791C472.724 353.791 472.96 353.723 473.097 353.555C473.23 353.42 473.333 353.185 473.333 352.916C473.333 352.647 473.264 352.445 473.131 352.277C472.994 352.109 472.789 352.042 472.553 352.042H472.416C472.348 352.042 472.283 352.075 472.248 352.109C472.18 352.176 472.18 352.21 472.18 352.277V353.791H472.45Z" fill="#00684A"/>
</g>
<defs>
<clipPath id="clip0_77_1157">
<rect width="377" height="95" fill="white" transform="translate(100 281)"/>
</clipPath>
</defs>
</svg>
