<svg width="98" height="96" viewBox="0 0 98 96" fill="none" xmlns="http://www.w3.org/2000/svg">
<g clip-path="url(#clip0_93_32)">
<path d="M97.8625 54.5405C97.7111 55.8019 97.3579 56.8867 96.8028 57.795C96.2983 58.6528 95.9955 59.6619 95.8946 60.8224C95.2387 60.8729 94.8855 61.1252 94.835 61.5793C94.7846 62.0334 94.4818 62.4371 93.9268 62.7903C94.0277 62.7903 94.1538 62.7903 94.3052 62.7903C94.507 62.7903 94.6836 62.8155 94.835 62.866C94.9864 62.866 95.0116 63.0173 94.9107 63.3201C94.4061 63.1687 94.0277 63.1435 93.7754 63.2444C93.5736 63.3453 93.397 63.4715 93.2456 63.6228C93.1447 63.7742 93.0185 63.9004 92.8672 64.0013C92.7158 64.0517 92.5139 64.0517 92.2617 64.0013C92.2112 64.2536 92.3121 64.4302 92.5644 64.5311C92.6653 64.5815 92.741 64.6572 92.7915 64.7581C92.8419 64.8086 92.8167 64.96 92.7158 65.2122C91.858 65.515 91.2525 65.843 90.8993 66.1962C90.5461 66.4989 89.9406 66.7512 89.0828 66.953C89.0828 67.1549 89.209 67.2558 89.4613 67.2558C89.764 67.2053 89.9406 67.2558 89.9911 67.4072C87.8718 69.3246 85.349 70.6365 82.4224 71.3429C79.4959 71.9988 76.5693 72.3268 73.6428 72.3268C72.9868 72.3268 72.129 72.0997 71.0694 71.6456C70.0603 71.2419 69.3034 70.8131 68.7988 70.3589C68.7484 70.3085 68.7484 70.1823 68.7988 69.9805C68.8493 69.7787 68.8493 69.6778 68.7988 69.6778C68.6475 69.5768 68.4961 69.4759 68.3447 69.375C68.2438 69.2741 68.1177 69.1732 67.9663 69.0723C67.4617 68.7695 67.0328 68.4163 66.6796 68.0127C66.3769 67.5585 66.276 66.8017 66.3769 65.7421C66.9824 64.5815 67.9663 63.6228 69.3286 62.866C70.691 62.0586 72.2047 61.5288 73.8698 61.2766C75.5854 60.9738 77.2253 60.999 78.7895 61.3522C80.3536 61.7054 81.6656 62.4371 82.7252 63.5471V64.7581C84.1884 63.9508 85.6769 62.8155 87.1907 61.3522C88.7549 59.889 90.0415 58.2239 91.0507 56.3569C92.1103 54.49 92.5896 52.5726 92.4887 50.6048C92.3878 48.9397 91.7318 47.7287 90.5209 46.9718C89.3603 46.2149 87.9223 45.8113 86.2067 45.7608C84.4912 45.6599 82.7756 45.786 81.0601 46.1393C79.3949 46.442 77.9821 46.7952 76.8216 47.1989C75.9134 48.4098 74.9042 48.9396 73.7942 48.7883C72.6841 48.5864 71.7758 47.981 71.0694 46.9718C70.363 45.9122 70.0855 44.7517 70.2369 43.4902C72.5075 41.8251 74.6772 40.0843 76.7459 38.2679C78.8147 36.4514 80.6564 34.3826 82.271 32.0616C83.8857 29.7405 85.0967 27.041 85.904 23.9631C84.1884 23.1053 82.2458 22.8026 80.0761 23.0549C77.9569 23.3072 75.9891 23.7108 74.1726 24.2658C72.5579 24.7704 70.7162 25.4264 68.6475 26.2337C66.6292 26.9906 64.9641 27.697 63.6522 28.3529C63.4503 28.4538 63.2233 28.58 62.971 28.7314C62.7187 28.8827 62.4664 29.0593 62.2141 29.2612C61.6591 29.5639 61.1293 29.8667 60.6247 30.1694C60.1201 30.4217 59.666 30.5478 59.2623 30.5478C58.6064 30.4974 57.9504 30.018 57.2945 29.1098C56.6385 28.2015 56.1592 27.1924 55.8565 26.0823C55.5537 24.9723 55.5537 24.1145 55.8565 23.509C56.2601 22.8026 56.8656 22.298 57.6729 21.9953C58.4803 21.6925 59.1614 21.3898 59.7165 21.087C59.6155 20.7843 59.7165 20.5068 60.0192 20.2545C60.3724 19.9517 60.7509 19.6994 61.1545 19.4976C61.3059 19.3967 61.4573 19.2958 61.6086 19.1949C61.76 19.0939 61.8861 18.993 61.9871 18.8921C62.3907 19.1444 62.5926 19.5733 62.5926 20.1788C62.643 20.7338 62.7439 21.2636 62.8953 21.7682C64.7622 21.1627 66.8815 20.5572 69.253 19.9517C71.6749 19.2958 74.1474 18.7912 76.6702 18.438C79.2436 18.0848 81.6656 18.0596 83.9361 18.3623C86.2067 18.6146 88.1494 19.3462 89.764 20.5572C90.9245 21.415 91.5553 22.4998 91.6562 23.8117C91.7571 25.0732 91.5553 26.4103 91.0507 27.8231C90.5461 29.2359 89.8901 30.5983 89.0828 31.9102C88.326 33.2221 87.6196 34.3826 86.9636 35.3918C86.8122 35.6441 86.6609 35.8711 86.5095 36.0729C86.3581 36.2748 86.232 36.4766 86.1311 36.6784C85.6265 37.1326 84.9958 37.6624 84.2389 38.2679C83.5325 38.8733 83.1036 39.4032 82.9522 39.8573C82.9018 40.0591 82.7504 40.0843 82.4981 39.933C82.3467 39.8825 82.2458 39.8573 82.1954 39.8573C82.1954 40.3114 82.3972 40.5889 82.8008 40.6898C83.2045 40.7403 83.7091 40.7655 84.3146 40.7655C84.5164 40.7655 84.7182 40.7907 84.9201 40.8412C85.1724 40.8412 85.3994 40.8412 85.6012 40.8412C88.1746 41.0935 90.4452 41.7747 92.413 42.8847C94.3809 43.9443 95.8694 45.4581 96.8785 47.4259C97.8877 49.3433 98.2157 51.7148 97.8625 54.5405ZM78.3353 66.726C78.2849 66.0196 77.9569 65.6411 77.3514 65.5907C76.7964 65.4898 76.2666 65.6159 75.762 65.9691C75.2574 66.2719 75.0556 66.7512 75.1565 67.4072C75.762 67.3567 76.317 67.281 76.8216 67.1801C77.3262 67.0287 77.8308 66.8774 78.3353 66.726ZM74.3996 71.3429C74.2987 71.6456 74.0212 71.6961 73.5671 71.4942C73.2643 71.3933 73.0625 71.3429 72.9616 71.3429C72.9112 71.7465 73.0373 71.9736 73.34 72.024C73.6932 72.0745 74.0212 72.024 74.324 71.8727C74.6267 71.7213 74.6519 71.5447 74.3996 71.3429Z" fill="#4798FF"/>
<path d="M53.2833 22.6008C52.2237 23.1558 51.265 23.8622 50.4072 24.72C49.5999 25.5778 48.7926 26.4356 47.9852 27.2934C47.1779 28.1511 46.2444 28.8828 45.1848 29.4883C44.5289 31.1534 43.7468 33.0708 42.8386 35.2404C41.9303 37.4101 41.3248 39.706 41.0221 42.1279C40.6184 42.1279 40.4166 42.2288 40.4166 42.4307C40.4166 42.6325 40.4166 42.8343 40.4166 43.0362C40.4166 43.1875 40.2148 43.2884 39.8111 43.3389C39.7606 43.6921 39.7606 43.8939 39.8111 43.9444C39.912 43.9949 40.0129 43.9949 40.1138 43.9444C40.3661 43.8939 40.5175 44.0201 40.568 44.3228C40.3157 46.0384 40.0382 47.9053 39.7354 49.9236C39.4327 51.8915 39.2056 53.607 39.0542 55.0703C39.0038 55.3226 39.0542 55.5244 39.2056 55.6758C39.357 55.7767 39.5084 55.8776 39.6597 55.9786C39.7102 56.029 39.7606 56.0542 39.8111 56.0542C39.5083 56.6093 39.3317 57.1139 39.2813 57.568C39.2813 57.9716 39.2813 58.3753 39.2813 58.779C39.3317 59.1826 39.3317 59.5863 39.2813 59.9899C39.2813 60.3431 39.1299 60.7468 38.8272 61.2009C39.1299 61.756 39.3317 62.5128 39.4327 63.4715C39.5336 64.4302 39.6093 65.4394 39.6597 66.499C39.7102 67.8613 39.8111 69.2237 39.9625 70.586C40.1643 71.8979 40.5175 73.0332 41.0221 73.9919C41.5267 74.9506 42.3592 75.5561 43.5197 75.8084C44.2261 75.7075 44.7307 75.43 45.0335 74.9759C45.3362 74.5722 45.7903 74.2947 46.3958 74.1433C45.7399 74.9506 45.1092 75.8589 44.5037 76.868C43.8982 77.9276 43.3179 78.735 42.7629 79.29C41.451 79.3404 40.2652 78.8611 39.2056 77.852C38.146 76.8428 37.3639 75.8589 36.8593 74.9002C35.8502 72.9828 35.1438 70.7627 34.7401 68.2398C34.3869 65.6664 34.1851 63.0426 34.1346 60.3684C34.1346 57.6941 34.1598 55.2217 34.2103 52.9511C34.2103 52.5474 34.2103 52.169 34.2103 51.8158C34.2103 51.4121 34.2103 51.0337 34.2103 50.6805C34.7653 46.7953 35.4717 42.9857 36.3295 39.2518C37.2378 35.518 38.3226 31.6832 39.584 27.7475C37.7676 27.8989 35.724 28.0755 33.4534 28.2773C31.2333 28.4791 28.6347 28.8828 25.6577 29.4883C25.4054 29.5387 25.2036 29.5387 25.0522 29.4883C24.9009 29.3874 24.7495 29.2612 24.5981 29.1098C24.3458 28.8576 24.1188 28.7314 23.9169 28.7314C23.7656 28.8323 23.6646 29.0089 23.6142 29.2612C23.5637 29.463 23.4376 29.6144 23.2358 29.7153C22.7312 29.6649 22.1509 29.6396 21.495 29.6396C20.8895 29.6396 20.2588 29.6396 19.6028 29.6396C17.5845 29.5892 15.3896 29.5135 13.0181 29.4126C10.6466 29.2612 8.35074 28.9332 6.13061 28.4287C3.96093 27.8736 2.09399 26.9906 0.529805 25.7796C0.42889 25.376 0.378432 25.0228 0.378432 24.72C0.378432 24.3668 0.403661 24.0388 0.454119 23.7361C0.454119 23.282 0.42889 22.8531 0.378432 22.4494C0.378432 21.9953 0.252288 21.4907 0 20.9357C0.555034 20.0275 1.38759 19.422 2.49765 19.1192C3.60772 18.766 4.76825 18.4885 5.97923 18.2867C7.24067 18.0344 8.27506 17.6055 9.08238 17C9.33467 17.4541 9.25898 17.9335 8.85532 18.438C8.50212 18.8922 8.07323 19.3715 7.56865 19.8761C7.21545 20.1788 6.86224 20.5068 6.50904 20.86C6.20629 21.2132 6.00446 21.5664 5.90355 21.9196C8.32551 22.6765 11.025 23.1558 14.002 23.3577C16.979 23.509 19.9812 23.4334 23.0087 23.1306C26.0362 22.8279 29.1645 22.5503 32.3938 22.2981C35.6736 21.9953 38.7515 21.4655 41.6276 20.7086C44.5541 19.9518 46.9761 18.7156 48.8935 17C50.4072 17.0505 51.6182 17.5803 52.5264 18.5894C53.4851 19.5481 53.7374 20.8852 53.2833 22.6008Z" fill="#4798FF"/>
</g>
<defs>
<clipPath id="clip0_93_32">
<rect width="98" height="96" fill="white"/>
</clipPath>
</defs>
</svg>
